<?xml version="1.0" encoding="utf-8"?>
<!-- Generator: Adobe Illustrator 16.0.0, SVG Export Plug-In . SVG Version: 6.00 Build 0)  -->
<!DOCTYPE svg PUBLIC "-//W3C//DTD SVG 1.1//EN" "http://www.w3.org/Graphics/SVG/1.1/DTD/svg11.dtd">
<svg version="1.1" id="Capa_1" xmlns="http://www.w3.org/2000/svg" xmlns:xlink="http://www.w3.org/1999/xlink" x="0px" y="0px"
	 width="266px" height="26px" viewBox="0 0 266 26" enable-background="new 0 0 266 26" xml:space="preserve">
<path shape-rendering="crispEdges" fill="#FF7631" d="M10.74,0L0,10.96v10.96h21.48V10.96L10.74,0z"/>
<g enable-background="new    ">
	<path d="M31.054,10.966v3.366h5.895v2.366h-5.895v4.639h-2.946V8.601h9.623v2.365H31.054z"/>
	<path d="M39.533,7.837h2.838v13.5h-2.838V7.837z"/>
	<path d="M46.891,20.834c-0.818-0.429-1.459-1.026-1.919-1.79c-0.461-0.766-0.691-1.631-0.691-2.603c0-0.97,0.23-1.837,0.691-2.601
		c0.46-0.764,1.101-1.361,1.919-1.792c0.819-0.431,1.744-0.646,2.775-0.646c1.03,0,1.951,0.216,2.765,0.646
		c0.812,0.431,1.45,1.028,1.91,1.792c0.461,0.764,0.691,1.631,0.691,2.601c0,0.972-0.23,1.837-0.691,2.603
		c-0.46,0.764-1.098,1.361-1.91,1.79c-0.813,0.432-1.734,0.646-2.765,0.646C48.635,21.48,47.71,21.266,46.891,20.834z
		 M51.458,18.415c0.467-0.489,0.7-1.148,0.7-1.974c0-0.823-0.233-1.483-0.7-1.975c-0.467-0.488-1.064-0.734-1.791-0.734
		c-0.729,0-1.328,0.246-1.802,0.734c-0.473,0.491-0.709,1.151-0.709,1.975c0,0.825,0.236,1.484,0.709,1.974
		c0.474,0.491,1.073,0.737,1.802,0.737C50.393,19.152,50.991,18.906,51.458,18.415z"/>
	<path d="M61.009,11.767c0.575-0.242,1.239-0.364,1.992-0.364v2.62c-0.315-0.024-0.527-0.038-0.637-0.038
		c-0.813,0-1.449,0.229-1.911,0.685c-0.46,0.455-0.69,1.137-0.69,2.047v4.621h-2.838v-9.789h2.711v1.293
		C59.975,12.366,60.433,12.009,61.009,11.767z"/>
	<path d="M72.081,12.486c0.812,0.72,1.219,1.809,1.219,3.265v5.586h-2.656v-1.22c-0.533,0.909-1.528,1.363-2.983,1.363
		c-0.753,0-1.404-0.126-1.955-0.381c-0.554-0.254-0.974-0.606-1.265-1.056c-0.293-0.449-0.438-0.958-0.438-1.526
		c0-0.912,0.343-1.627,1.028-2.147c0.685-0.522,1.743-0.783,3.175-0.783h2.256c0-0.619-0.188-1.093-0.564-1.428
		c-0.376-0.334-0.94-0.5-1.691-0.5c-0.521,0-1.035,0.082-1.537,0.244c-0.504,0.163-0.931,0.387-1.283,0.663l-1.019-1.98
		c0.533-0.377,1.173-0.668,1.919-0.875c0.746-0.204,1.514-0.309,2.301-0.309C70.103,11.402,71.268,11.764,72.081,12.486z
		 M69.661,19.236c0.376-0.226,0.643-0.558,0.801-0.993v-1.001h-1.946c-1.165,0-1.747,0.383-1.747,1.146
		c0,0.365,0.143,0.65,0.428,0.865c0.284,0.213,0.675,0.316,1.173,0.316C68.854,19.57,69.284,19.46,69.661,19.236z"/>
	<path d="M92.893,8.601v12.736h-2.948v-5.224h-5.784v5.224h-2.948V8.601h2.948v5.021h5.784V8.601H92.893z"/>
	<path d="M105.247,17.242h-7.405c0.133,0.606,0.448,1.085,0.946,1.437c0.497,0.352,1.115,0.529,1.855,0.529
		c0.509,0,0.961-0.075,1.355-0.229c0.395-0.152,0.762-0.39,1.102-0.719l1.509,1.64c-0.922,1.054-2.269,1.58-4.039,1.58
		c-1.104,0-2.08-0.215-2.929-0.646c-0.849-0.429-1.504-1.026-1.965-1.79c-0.461-0.766-0.691-1.631-0.691-2.603
		c0-0.956,0.228-1.821,0.683-2.592c0.454-0.771,1.079-1.37,1.874-1.801c0.794-0.431,1.683-0.646,2.665-0.646
		c0.958,0,1.825,0.207,2.603,0.62c0.775,0.411,1.385,1.002,1.828,1.774c0.442,0.768,0.663,1.662,0.663,2.682
		C105.3,16.517,105.282,16.769,105.247,17.242z M98.606,14.096c-0.437,0.365-0.703,0.86-0.801,1.491h4.821
		c-0.098-0.619-0.364-1.111-0.8-1.482c-0.438-0.37-0.972-0.556-1.602-0.556C99.583,13.549,99.042,13.732,98.606,14.096z"/>
	<path d="M111.277,11.767c0.576-0.242,1.239-0.364,1.992-0.364v2.62c-0.315-0.024-0.528-0.038-0.637-0.038
		c-0.812,0-1.449,0.229-1.91,0.685c-0.461,0.455-0.691,1.137-0.691,2.047v4.621h-2.838v-9.789h2.711v1.293
		C110.244,12.366,110.701,12.009,111.277,11.767z"/>
	<path d="M123.848,12.493c0.746,0.729,1.119,1.808,1.119,3.24v5.604h-2.837v-5.168c0-0.776-0.171-1.356-0.511-1.737
		c-0.339-0.383-0.831-0.573-1.474-0.573c-0.716,0-1.286,0.222-1.711,0.664c-0.424,0.442-0.636,1.1-0.636,1.974v4.841h-2.839v-9.789
		h2.711v1.145c0.377-0.41,0.844-0.729,1.401-0.952c0.558-0.226,1.171-0.338,1.838-0.338
		C122.124,11.402,123.103,11.767,123.848,12.493z"/>
	<path d="M134.973,12.486c0.812,0.72,1.221,1.809,1.221,3.265v5.586h-2.656v-1.22c-0.534,0.909-1.529,1.363-2.985,1.363
		c-0.753,0-1.403-0.126-1.957-0.381c-0.551-0.254-0.973-0.606-1.264-1.056s-0.437-0.958-0.437-1.526
		c0-0.912,0.343-1.627,1.027-2.147c0.687-0.522,1.744-0.783,3.176-0.783h2.256c0-0.619-0.188-1.093-0.564-1.428
		c-0.375-0.334-0.939-0.5-1.691-0.5c-0.521,0-1.034,0.082-1.536,0.244c-0.505,0.163-0.932,0.387-1.284,0.663l-1.019-1.98
		c0.533-0.377,1.174-0.668,1.921-0.875c0.745-0.204,1.512-0.309,2.3-0.309C132.997,11.402,134.16,11.764,134.973,12.486z
		 M132.554,19.236c0.376-0.226,0.643-0.558,0.8-0.993v-1.001h-1.946c-1.164,0-1.746,0.383-1.746,1.146
		c0,0.365,0.143,0.65,0.427,0.865c0.285,0.213,0.676,0.316,1.174,0.316C131.747,19.57,132.177,19.46,132.554,19.236z M132.573,7.673
		h3.054l-3.292,2.62h-2.219L132.573,7.673z"/>
	<path d="M147.645,12.493c0.748,0.729,1.119,1.808,1.119,3.24v5.604h-2.838v-5.168c0-0.776-0.17-1.356-0.51-1.737
		c-0.34-0.383-0.83-0.573-1.475-0.573c-0.715,0-1.285,0.222-1.709,0.664s-0.637,1.1-0.637,1.974v4.841h-2.838v-9.789h2.711v1.145
		c0.375-0.41,0.844-0.729,1.4-0.952c0.557-0.226,1.17-0.338,1.838-0.338C145.92,11.402,146.898,11.767,147.645,12.493z"/>
	<path d="M161.408,7.837v13.5h-2.709v-1.129c-0.705,0.85-1.725,1.272-3.059,1.272c-0.922,0-1.756-0.204-2.502-0.617
		c-0.746-0.412-1.33-1.001-1.756-1.764c-0.424-0.767-0.637-1.651-0.637-2.658c0-1.005,0.213-1.893,0.637-2.656
		c0.426-0.763,1.01-1.352,1.756-1.763c0.746-0.413,1.58-0.62,2.502-0.62c1.248,0,2.227,0.395,2.93,1.184V7.837H161.408z
		 M157.916,18.415c0.471-0.489,0.709-1.148,0.709-1.974c0-0.823-0.238-1.483-0.709-1.975c-0.475-0.488-1.07-0.734-1.785-0.734
		c-0.729,0-1.328,0.246-1.801,0.734c-0.471,0.491-0.711,1.151-0.711,1.975c0,0.825,0.24,1.484,0.711,1.974
		c0.473,0.491,1.072,0.737,1.801,0.737C156.846,19.152,157.441,18.906,157.916,18.415z"/>
	<path d="M173.561,17.242h-7.404c0.133,0.606,0.449,1.085,0.947,1.437c0.496,0.352,1.115,0.529,1.855,0.529
		c0.508,0,0.963-0.075,1.354-0.229c0.396-0.152,0.762-0.39,1.102-0.719l1.51,1.64c-0.92,1.054-2.268,1.58-4.039,1.58
		c-1.102,0-2.08-0.215-2.928-0.646c-0.85-0.429-1.504-1.026-1.965-1.79c-0.461-0.766-0.693-1.631-0.693-2.603
		c0-0.956,0.229-1.821,0.684-2.592s1.08-1.37,1.875-1.801c0.793-0.431,1.682-0.646,2.664-0.646c0.957,0,1.826,0.207,2.602,0.62
		c0.777,0.411,1.387,1.002,1.828,1.774c0.445,0.768,0.664,1.662,0.664,2.682C173.615,16.517,173.598,16.769,173.561,17.242z
		 M166.92,14.096c-0.436,0.365-0.703,0.86-0.801,1.491h4.822c-0.098-0.619-0.363-1.111-0.801-1.482
		c-0.436-0.37-0.971-0.556-1.6-0.556C167.898,13.549,167.357,13.732,166.92,14.096z"/>
	<path d="M183.477,19.152v2.185h-8.732v-1.711l4.982-5.894h-4.857v-2.185h8.443v1.709l-4.986,5.896H183.477z"/>
</g>
<g opacity="0.5" enable-background="new    ">
	<path d="M192.662,15.379c0.402,0.182,0.711,0.439,0.928,0.773s0.325,0.729,0.325,1.187c0,0.45-0.108,0.845-0.325,1.182
		s-0.525,0.595-0.928,0.774c-0.4,0.178-0.874,0.268-1.419,0.268h-1.239v1.695h-1.424v-6.151h2.663
		C191.788,15.106,192.262,15.197,192.662,15.379z M192.14,18.125c0.223-0.185,0.333-0.445,0.333-0.786
		c0-0.345-0.11-0.61-0.333-0.795c-0.222-0.185-0.549-0.276-0.976-0.276h-1.16v2.135h1.16
		C191.591,18.402,191.918,18.311,192.14,18.125z"/>
	<path d="M196.803,16.637c0.277-0.118,0.6-0.176,0.962-0.176v1.266c-0.151-0.013-0.255-0.02-0.308-0.02
		c-0.393,0-0.7,0.111-0.924,0.331c-0.221,0.22-0.332,0.549-0.332,0.989v2.23h-1.372V16.53h1.31v0.624
		C196.303,16.926,196.523,16.754,196.803,16.637z"/>
	<path d="M199.448,21.018c-0.396-0.209-0.705-0.496-0.928-0.865c-0.222-0.37-0.335-0.789-0.335-1.258s0.113-0.887,0.335-1.257
		c0.223-0.37,0.532-0.657,0.928-0.866c0.396-0.207,0.841-0.311,1.34-0.311s0.943,0.104,1.335,0.311
		c0.393,0.209,0.701,0.496,0.923,0.866c0.224,0.37,0.335,0.788,0.335,1.257s-0.111,0.888-0.335,1.258
		c-0.222,0.369-0.53,0.656-0.923,0.865c-0.392,0.207-0.836,0.312-1.335,0.312S199.844,21.225,199.448,21.018z M201.653,19.848
		c0.226-0.236,0.34-0.555,0.34-0.953s-0.114-0.717-0.34-0.954s-0.515-0.355-0.865-0.355c-0.353,0-0.642,0.118-0.87,0.355
		s-0.344,0.556-0.344,0.954s0.115,0.717,0.344,0.953c0.229,0.238,0.518,0.357,0.87,0.357
		C201.139,20.205,201.428,20.086,201.653,19.848z"/>
	<path d="M208.289,16.764c0.361,0.201,0.644,0.486,0.849,0.852c0.204,0.367,0.308,0.793,0.308,1.279s-0.104,0.913-0.308,1.279
		c-0.205,0.366-0.487,0.649-0.849,0.853c-0.36,0.201-0.76,0.303-1.199,0.303c-0.604,0-1.078-0.19-1.424-0.571v2.206h-1.371V16.53
		h1.311v0.544c0.339-0.409,0.834-0.613,1.484-0.613C207.529,16.461,207.929,16.561,208.289,16.764z M207.718,19.848
		c0.226-0.236,0.339-0.555,0.339-0.953s-0.113-0.717-0.339-0.954s-0.513-0.355-0.866-0.355c-0.35,0-0.639,0.118-0.865,0.355
		c-0.226,0.237-0.338,0.556-0.338,0.954s0.112,0.717,0.338,0.953c0.227,0.238,0.516,0.357,0.865,0.357
		C207.205,20.205,207.492,20.086,207.718,19.848z"/>
	<path d="M210.43,15.651c-0.159-0.146-0.238-0.328-0.238-0.545s0.079-0.397,0.238-0.545c0.158-0.147,0.362-0.22,0.614-0.22
		c0.253,0,0.458,0.07,0.615,0.211c0.158,0.141,0.237,0.316,0.237,0.527c0,0.229-0.079,0.418-0.237,0.567
		c-0.157,0.149-0.362,0.224-0.615,0.224C210.792,15.871,210.588,15.799,210.43,15.651z M210.358,16.53h1.37v4.728h-1.37V16.53z"/>
	<path d="M217.609,19.281h-3.577c0.065,0.293,0.218,0.523,0.458,0.694c0.239,0.169,0.539,0.255,0.896,0.255
		c0.245,0,0.465-0.037,0.654-0.11c0.189-0.072,0.367-0.188,0.531-0.347l0.73,0.791c-0.446,0.51-1.096,0.765-1.952,0.765
		c-0.532,0-1.005-0.104-1.415-0.312c-0.41-0.209-0.727-0.496-0.949-0.865c-0.223-0.37-0.334-0.789-0.334-1.258
		c0-0.463,0.109-0.881,0.33-1.253c0.22-0.372,0.521-0.661,0.904-0.87c0.384-0.207,0.814-0.311,1.289-0.311
		c0.463,0,0.881,0.1,1.256,0.297c0.376,0.2,0.67,0.486,0.885,0.857c0.212,0.373,0.319,0.805,0.319,1.297
		C217.636,18.93,217.627,19.053,217.609,19.281z M214.402,17.762c-0.212,0.176-0.342,0.415-0.387,0.72h2.328
		c-0.047-0.299-0.176-0.538-0.387-0.716c-0.211-0.18-0.469-0.269-0.773-0.269C214.873,17.497,214.613,17.585,214.402,17.762z"/>
	<path d="M223.367,14.738v6.52h-1.311v-0.544c-0.34,0.409-0.832,0.615-1.477,0.615c-0.445,0-0.848-0.1-1.208-0.299
		c-0.36-0.198-0.644-0.483-0.849-0.853s-0.307-0.797-0.307-1.283s0.102-0.914,0.307-1.283s0.488-0.653,0.849-0.854
		c0.36-0.197,0.763-0.297,1.208-0.297c0.604,0,1.075,0.189,1.414,0.57v-2.293H223.367z M221.679,19.848
		c0.229-0.236,0.343-0.555,0.343-0.953s-0.114-0.717-0.343-0.954c-0.228-0.237-0.516-0.355-0.861-0.355
		c-0.351,0-0.642,0.118-0.87,0.355s-0.344,0.556-0.344,0.954s0.115,0.717,0.344,0.953c0.229,0.238,0.52,0.357,0.87,0.357
		C221.163,20.205,221.451,20.086,221.679,19.848z"/>
	<path d="M228.227,16.982c0.393,0.35,0.59,0.875,0.59,1.578v2.697h-1.283V20.67c-0.259,0.439-0.739,0.659-1.443,0.659
		c-0.362,0-0.678-0.062-0.943-0.185c-0.268-0.123-0.471-0.293-0.611-0.51s-0.211-0.463-0.211-0.738c0-0.439,0.165-0.785,0.496-1.037
		c0.332-0.252,0.844-0.378,1.533-0.378h1.092c0-0.299-0.092-0.528-0.273-0.69c-0.182-0.16-0.455-0.241-0.818-0.241
		c-0.251,0-0.498,0.04-0.742,0.118c-0.242,0.079-0.449,0.187-0.619,0.321l-0.492-0.958c0.258-0.182,0.567-0.322,0.928-0.422
		c0.359-0.1,0.73-0.148,1.111-0.148C227.271,16.461,227.834,16.635,228.227,16.982z M227.058,20.244
		c0.181-0.109,0.31-0.269,0.388-0.48v-0.482h-0.941c-0.562,0-0.844,0.184-0.844,0.554c0,0.175,0.068,0.314,0.206,0.417
		s0.327,0.154,0.567,0.154C226.667,20.406,226.877,20.352,227.058,20.244z"/>
	<path d="M234.923,14.738v6.52h-1.31v-0.544c-0.339,0.409-0.832,0.615-1.476,0.615c-0.446,0-0.849-0.1-1.209-0.299
		c-0.36-0.198-0.642-0.483-0.848-0.853s-0.308-0.797-0.308-1.283s0.102-0.914,0.308-1.283s0.487-0.653,0.848-0.854
		c0.36-0.197,0.763-0.297,1.209-0.297c0.604,0,1.075,0.189,1.415,0.57v-2.293H234.923z M233.236,19.848
		c0.228-0.236,0.343-0.555,0.343-0.953s-0.115-0.717-0.343-0.954c-0.229-0.237-0.517-0.355-0.862-0.355
		c-0.351,0-0.642,0.118-0.869,0.355c-0.229,0.237-0.343,0.556-0.343,0.954s0.114,0.717,0.343,0.953
		c0.228,0.238,0.519,0.357,0.869,0.357C232.72,20.205,233.008,20.086,233.236,19.848z"/>
	<path d="M240.795,19.281h-3.577c0.063,0.293,0.217,0.523,0.457,0.694c0.24,0.169,0.538,0.255,0.896,0.255
		c0.245,0,0.464-0.037,0.655-0.11c0.189-0.072,0.366-0.188,0.53-0.347l0.729,0.791c-0.445,0.51-1.095,0.765-1.951,0.765
		c-0.532,0-1.005-0.104-1.414-0.312c-0.411-0.209-0.728-0.496-0.949-0.865c-0.223-0.37-0.334-0.789-0.334-1.258
		c0-0.463,0.109-0.881,0.33-1.253c0.219-0.372,0.521-0.661,0.904-0.87c0.383-0.207,0.814-0.311,1.288-0.311
		c0.463,0,0.882,0.1,1.257,0.297c0.375,0.2,0.669,0.486,0.883,0.857c0.213,0.373,0.32,0.805,0.32,1.297
		C240.82,18.93,240.812,19.053,240.795,19.281z M237.588,17.762c-0.212,0.176-0.342,0.415-0.389,0.72h2.33
		c-0.047-0.299-0.177-0.538-0.388-0.716c-0.21-0.18-0.468-0.269-0.773-0.269C238.059,17.497,237.799,17.585,237.588,17.762z"/>
	<path d="M242.174,21.184c-0.375-0.097-0.674-0.217-0.896-0.364l0.457-0.984c0.212,0.134,0.466,0.245,0.765,0.329
		c0.3,0.086,0.593,0.128,0.879,0.128c0.581,0,0.87-0.144,0.87-0.431c0-0.135-0.078-0.232-0.238-0.29
		c-0.157-0.059-0.4-0.108-0.729-0.149c-0.387-0.059-0.705-0.126-0.959-0.201c-0.251-0.076-0.469-0.211-0.654-0.404
		c-0.185-0.193-0.276-0.47-0.276-0.827c0-0.299,0.087-0.563,0.259-0.796c0.174-0.231,0.426-0.41,0.757-0.541
		c0.329-0.128,0.722-0.191,1.173-0.191c0.334,0,0.666,0.035,0.998,0.109c0.33,0.072,0.604,0.174,0.82,0.303l-0.456,0.976
		c-0.415-0.234-0.87-0.352-1.362-0.352c-0.293,0-0.513,0.04-0.66,0.124c-0.146,0.08-0.219,0.188-0.219,0.316
		c0,0.146,0.08,0.248,0.237,0.307c0.158,0.059,0.41,0.113,0.755,0.168c0.389,0.062,0.704,0.133,0.95,0.205
		c0.246,0.074,0.46,0.207,0.642,0.4s0.273,0.463,0.273,0.809c0,0.293-0.088,0.554-0.265,0.783c-0.177,0.228-0.432,0.404-0.769,0.531
		c-0.338,0.126-0.738,0.188-1.201,0.188C242.933,21.329,242.549,21.28,242.174,21.184z"/>
</g>
</svg>
